<svg xmlns="http://www.w3.org/2000/svg" xmlns:svg="http://www.w3.org/2000/svg" id="svg8" width="32" height="32" version="1.1" viewBox="0 0 8.467 8.467"><metadata id="metadata5"/><g id="layer1" transform="translate(-18.854164,-225.46826)"><path style="fill:#e6e6e6;stroke:none;stroke-width:.26458332px;stroke-linecap:butt;stroke-linejoin:miter;stroke-opacity:1;fill-opacity:1" id="path835" d="m 20.970831,228.64326 v 3.96875 h 4.233333 v -3.96875 h 0.264583 v 4.23333 h -4.7625 v -4.23333 z"/><path style="fill:#e6e6e6;fill-opacity:1;stroke:none;stroke-width:.26458332px;stroke-linecap:butt;stroke-linejoin:miter;stroke-opacity:1" id="path837" d="m 21.76458,229.17243 v 2.91041 h 0.264584 v -2.91041 z"/><path style="fill:#e6e6e6;fill-opacity:1;stroke:none;stroke-width:.26458332px;stroke-linecap:butt;stroke-linejoin:miter;stroke-opacity:1" id="path837-3" d="m 22.955205,229.17243 v 2.91041 h 0.264584 v -2.91041 z"/><path style="fill:#e6e6e6;fill-opacity:1;stroke:none;stroke-width:.26458332px;stroke-linecap:butt;stroke-linejoin:miter;stroke-opacity:1" id="path837-3-6" d="m 24.145831,229.17243 v 2.91041 h 0.264584 v -2.91041 z"/><path style="fill:#e6e6e6;fill-opacity:1;stroke:none;stroke-width:.26458332px;stroke-linecap:butt;stroke-linejoin:miter;stroke-opacity:1" id="path871" d="m 21.76458,226.52693 v 0.79341 h 0.264584 v -0.52916 h 2.116666 v 0.52916 h 0.264584 v -0.79375 z"/><path style="opacity:1;fill:#e6e6e6;fill-opacity:1;stroke:none;stroke-width:.03779528;stroke-linejoin:round;stroke-miterlimit:4;stroke-dasharray:none;stroke-opacity:1" id="rect881" d="M 4 7 L 4 12 L 27.998047 12 L 27.998047 7 L 4 7 z M 5 8 L 27 8 L 27 11 L 5 11 L 5 8 z" transform="matrix(0.26458333,0,0,0.26458333,18.854164,225.46826)"/></g></svg>