<svg xmlns="http://www.w3.org/2000/svg" xmlns:svg="http://www.w3.org/2000/svg" id="svg8" width="32" height="32" version="1.1" viewBox="0 0 8.467 8.467"><metadata id="metadata5"/><g id="layer1" transform="translate(-18.854164,-225.46826)"><path id="path944" d="m 25.343714,10.264687 -0.70702,-0.7070204 -7.599585,7.6005364 -2.886718,2.884766 H 12.003906 L 11.980469,17.970703 21.909591,8.0421546 24.0309,10.163462 24.636694,9.5576666 21.808273,6.7292423 10.990234,17.548828 l 0.0059,1.408203 0.0078,2.085938 3.552735,0.0078 1.007812,-1.007812 z" transform="matrix(0.26458333,0,0,0.26458333,18.854164,225.46826)" style="opacity:1;fill:#e6e6e6;fill-opacity:1;stroke:none;stroke-width:.99999994px;stroke-linecap:butt;stroke-linejoin:miter;stroke-opacity:1"/><path id="path842-6" d="m 24.537109,4 -2.123047,2.1230469 0.707032,0.7070312 2.121094,2.1210938 0.707338,-0.7063383 -2.121306,-2.1213082 0.706936,-0.7075098 2.121094,2.1210938 -1.414062,1.4140625 0.707031,0.7070312 2.121093,-2.1210937 z" transform="matrix(0.26458333,0,0,0.26458333,18.854164,225.46826)" style="opacity:1;fill:#e6e6e6;fill-opacity:1;stroke:none;stroke-width:.99999994px;stroke-linecap:butt;stroke-linejoin:miter;stroke-opacity:1"/><path style="fill:#e6e6e6;stroke:none;stroke-width:.26458332px;stroke-linecap:butt;stroke-linejoin:miter;stroke-opacity:1" id="path1029" d="m 22.312943,230.30839 v 0.18698 h 0.187175 l 2.364858,-2.36483 -0.187091,-0.18709 z"/><path style="fill:#e6e6e6;stroke:none;stroke-width:.26458332px;stroke-linecap:butt;stroke-linejoin:miter;stroke-opacity:1;fill-opacity:0" id="path1031" d="m 22.312943,230.30839 v 0.18698 h 0.18698 l 2.365051,-2.36483 -0.187089,-0.18709 z"/><path style="fill:#e6e6e6;stroke:none;stroke-width:.26458332px;stroke-linecap:butt;stroke-linejoin:miter;stroke-opacity:1;fill-opacity:1" id="path1043" d="m 22.312943,230.30839 v 0.18698 h 0.187175 l 2.364855,-2.36483 -0.187088,-0.18709 z"/><path style="opacity:1;fill:#e6e6e6;fill-opacity:1;stroke:none;stroke-width:.03779528;stroke-miterlimit:4;stroke-dasharray:none;stroke-opacity:1" id="path925" d="M 12 15 L 8 15 L 8 16 L 11 16 L 12 15 z" transform="matrix(0.26458333,0,0,0.26458333,18.854164,225.46826)"/><path style="opacity:1;fill:#e6e6e6;fill-opacity:1;stroke:none;stroke-width:.03779528;stroke-miterlimit:4;stroke-dasharray:none;stroke-opacity:1" id="path960" d="m 17,20.035156 h 1 v -1.035055 z" transform="matrix(0.26458333,0,0,0.26458333,18.854164,225.46826)"/><path style="opacity:1;fill:#e6e6e6;fill-opacity:1;stroke:none;stroke-width:.03779528;stroke-miterlimit:4;stroke-dasharray:none;stroke-opacity:1" id="path958" d="M 10,19.035156 8,19 v 1.035156 h 2 z" transform="matrix(0.26458333,0,0,0.26458333,18.854164,225.46826)"/><rect style="opacity:1;fill:#e6e6e6;fill-opacity:1;stroke:none;stroke-width:.01;stroke-miterlimit:4;stroke-dasharray:none;stroke-opacity:1" id="rect1159-1-9" width="2.646" height=".265" x="20.969" y="231.552"/><path style="fill:#e6e6e6;fill-opacity:1;stroke:none;stroke-width:.99999994px;stroke-linecap:butt;stroke-linejoin:miter;stroke-opacity:1" id="path838" d="M 20,7 H 10 9.5859375 L 3.9960938,12.589844 4,13 V 28 H 21 V 16 l -1,1 V 27 H 5 V 13 h 5 V 8 h 9 z M 9,9 v 3 H 6 Z" transform="matrix(0.26458333,0,0,0.26458333,18.854164,225.46826)"/></g></svg>