<svg xmlns="http://www.w3.org/2000/svg" xmlns:svg="http://www.w3.org/2000/svg" id="svg8" width="32" height="32" version="1.1" viewBox="0 0 8.467 8.467"><metadata id="metadata5"/><g id="layer1" transform="translate(-18.854164,-225.46826)"><path style="opacity:1;fill:#e6e6e6;fill-opacity:1;stroke:none;stroke-width:.99999994px;stroke-linecap:butt;stroke-linejoin:miter;stroke-opacity:1" id="path1005" d="M 13.582031 19 L 14.582031 19 L 14.582031 11.996094 L 16 11.996094 L 16 11.013672 L 13.582031 11.013672 L 13.582031 19 z" transform="matrix(0.26458333,0,0,0.26458333,18.854164,225.46826)"/><path style="opacity:1;fill:#e6e6e6;fill-opacity:1;stroke:none;stroke-width:.99999994px;stroke-linecap:butt;stroke-linejoin:miter;stroke-opacity:1" id="path842" d="M 12.064453,4 4,11.996094 H 9.5820312 V 25 L 14,25 V 24 H 10.582031 V 11.013672 L 6.4648438,11.011719 12.064453,5.4140625 16,9.3496094 V 7.9355469 Z" transform="matrix(0.26458333,0,0,0.26458333,18.854164,225.46826)"/><path id="path842-6" d="M 17.519531,6.9980469 V 20.001953 H 15 v 0.982422 h 3.519531 V 7.9980469 h 3 V 20.984375 h 4.082031 L 20.001953,26.583984 15,21.580078 v 1.458984 l 5.001953,4.958985 7.996094,-7.996094 H 22.519531 V 6.9980469 Z M 15,23.039062 V 21.580078 L 14.404297,20.984375 H 15 v -0.982422 h -3.0625 z" transform="matrix(0.26458333,0,0,0.26458333,18.854164,225.46826)" style="opacity:1;fill:#e6e6e6;fill-opacity:1;stroke:none;stroke-width:.99999994px;stroke-linecap:butt;stroke-linejoin:miter;stroke-opacity:1"/></g></svg>