<svg xmlns="http://www.w3.org/2000/svg" xmlns:svg="http://www.w3.org/2000/svg" xmlns:xlink="http://www.w3.org/1999/xlink" id="svg8" width="48" height="48" version="1.1" viewBox="0 0 12.7 12.7"><defs id="defs2"><linearGradient id="linearGradient908"><stop style="stop-color:#6e7678;stop-opacity:1" id="stop904" offset="0"/><stop style="stop-color:#2e3235;stop-opacity:1" id="stop906" offset="1"/></linearGradient><linearGradient id="linearGradient881"><stop style="stop-color:#4d595a;stop-opacity:1" id="stop877" offset="0"/><stop style="stop-color:#313537;stop-opacity:1" id="stop879" offset="1"/></linearGradient><linearGradient id="linearGradient1014"><stop id="stop1010" offset="0" style="stop-color:#232629;stop-opacity:1"/><stop id="stop1012" offset="1" style="stop-color:#282728;stop-opacity:.6574803"/></linearGradient><linearGradient id="linearGradient974"><stop style="stop-color:#232629;stop-opacity:1" id="stop970" offset="0"/><stop style="stop-color:#232629;stop-opacity:0" id="stop972" offset="1"/></linearGradient><linearGradient id="linearGradient847"><stop style="stop-color:#c1fe6f;stop-opacity:1" id="stop843" offset="0"/><stop style="stop-color:#60fe6f;stop-opacity:1" id="stop845" offset="1"/></linearGradient><linearGradient id="linearGradient5057"><stop style="stop-color:#3c3c3c;stop-opacity:1" id="stop5053" offset="0"/><stop style="stop-color:#282728;stop-opacity:.6574803" id="stop5055" offset="1"/></linearGradient><linearGradient id="linearGradient4759"><stop style="stop-color:#2eec71;stop-opacity:1" id="stop4755" offset="0"/><stop style="stop-color:#1cdc9a;stop-opacity:1" id="stop4757" offset="1"/></linearGradient><linearGradient id="linearGradient4713"><stop id="stop4709" offset="0" style="stop-color:#3de256;stop-opacity:1"/><stop id="stop4711" offset="1" style="stop-color:#2fbeba;stop-opacity:1"/></linearGradient><linearGradient id="linearGradient4707" x1="89.966" x2="108.002" y1="19.458" y2="39.934" gradientTransform="translate(38.574145,1.3181723)" gradientUnits="userSpaceOnUse" xlink:href="#linearGradient4713"/><linearGradient id="linearGradient5059" x1="92.227" x2="140.261" y1="48.94" y2="94.022" gradientUnits="userSpaceOnUse" xlink:href="#linearGradient5057"/><linearGradient id="linearGradient953" x1="85.23" x2="113.087" y1="28.293" y2="35.516" gradientTransform="matrix(0.34597512,0.06144722,-0.06655638,0.31941658,-25.119909,272.6237)" gradientUnits="userSpaceOnUse" xlink:href="#linearGradient4759"/><linearGradient id="linearGradient955" x1="39.631" x2="56.496" y1="196.652" y2="208.575" gradientTransform="matrix(0.15666471,0,0,0.15666471,-5.1504396,254.55225)" gradientUnits="userSpaceOnUse" xlink:href="#linearGradient847"/><linearGradient id="linearGradient984" x1="2.117" x2="8.202" y1="290.385" y2="297" gradientTransform="matrix(0.77674916,0,0,0.77993748,0.85059819,64.012035)" gradientUnits="userSpaceOnUse" xlink:href="#linearGradient974"/><linearGradient id="linearGradient976" x1="85.003" x2="90.152" y1="24.073" y2="29.207" gradientTransform="matrix(0.20376549,0,0,0.20074727,-14.31152,285.69187)" gradientUnits="userSpaceOnUse" xlink:href="#linearGradient1014"/><linearGradient id="linearGradient1028" x1="1.323" x2="13.412" y1="286.152" y2="297" gradientTransform="matrix(0.77674916,0,0,0.77993748,1.4662318,64.013879)" gradientUnits="userSpaceOnUse" xlink:href="#linearGradient974"/><clipPath id="clipPath922" clipPathUnits="userSpaceOnUse"><rect style="fill:none;fill-opacity:1;stroke:#23d829;stroke-width:.044;stroke-miterlimit:4;stroke-dasharray:none;stroke-opacity:.72265625" id="rect924" width="12.7" height="12.171" x="0" y="284.565" ry="1.064"/></clipPath><linearGradient id="linearGradient883" x1="0" x2="12.7" y1="284.829" y2="297" gradientTransform="matrix(0.87499999,0,0,0.8892651,0.79374991,32.185238)" gradientUnits="userSpaceOnUse" xlink:href="#linearGradient881"/><linearGradient id="linearGradient910" x1="12.7" x2="12.7" y1="284.3" y2="297" gradientTransform="matrix(0.87500008,0,0,0.87505491,0.81442048,36.315602)" gradientUnits="userSpaceOnUse" xlink:href="#linearGradient908"/><linearGradient id="linearGradient874" x1="255.398" x2="256.429" y1="156.974" y2="156.974" gradientUnits="userSpaceOnUse" xlink:href="#linearGradient4759"/></defs><metadata id="metadata5"/><g id="layer1" transform="translate(0,-284.29999)"><rect style="fill:url(#linearGradient910);fill-opacity:1;stroke:none;stroke-width:.21816222;stroke-miterlimit:4;stroke-dasharray:none;stroke-opacity:1" id="rect4910-1" width="11.113" height="11.113" x=".794" y="285.094" ry=".529"/><rect style="fill:url(#linearGradient883);fill-opacity:1;stroke:none;stroke-width:.08627162;stroke-miterlimit:4;stroke-dasharray:none;stroke-opacity:1" id="rect4910-2-2" width="11.113" height="10.353" x=".794" y="285.474" ry=".525"/><path style="opacity:.65;fill:url(#linearGradient1028);fill-opacity:1;stroke:none;stroke-width:.20593624px;stroke-linecap:butt;stroke-linejoin:miter;stroke-opacity:1" id="path1020" d="m 2.4938062,288.43277 1.8496339,1.85724 1.0275745,0.41087 4.9323574,4.95258 1.583192,0.002 -0.0022,-5.63289 -1.786476,-1.79602 -3.4937536,-1.0318 -3.699268,0.61907 z" clip-path="none"/><g id="g889" transform="matrix(0.77674917,0,0,0.77993751,1.4662318,64.012038)"><path style="fill:#27b181;fill-opacity:1;stroke:none;stroke-width:.02480469px;stroke-linecap:butt;stroke-linejoin:miter;stroke-opacity:1" id="path879-7" d="m 4.9266835,288.67208 c 0,0 -0.3728772,0.72708 -0.5817291,0.90212 -0.1467587,0.12299 -0.5403878,0.19489 -0.5403878,0.19489 l 0.7707172,0.2259 1.6743163,-0.39422 c 0,0 -0.7913874,-1.07043 -1.3229166,-0.92869 z"/><path id="path4715-0" d="m 4.1744977,288.92304 c 0,0 1.1173813,-2.75102 3.3019109,-0.59828 2.1845217,2.15274 3.6949274,5.47345 3.6949274,5.47345 0,0 -2.9944654,-4.26031 -6.9968383,-4.87517 z" style="fill:#1cd28e;fill-opacity:1;stroke:none;stroke-width:.08956835px;stroke-linecap:butt;stroke-linejoin:miter;stroke-opacity:1"/><path id="path4715-6-93" d="m 2.2426889,288.4487 c 0,0 -0.1508518,-2.94653 2.7747518,-1.81527 2.9256022,1.13127 6.6242253,4.28351 6.6242253,4.28351 0,0 -4.8112308,-3.07932 -9.3989771,-2.46824 z" style="fill:url(#linearGradient953);fill-opacity:1;stroke:none;stroke-width:.08956835px;stroke-linecap:butt;stroke-linejoin:miter;stroke-opacity:1"/><path id="path4715-6-9-6" d="m 1.3229167,287.74194 c 0,0 -1.322916666666666,-2.64583 1.9849644,-2.35592 3.1595803,0.27691 7.8046189,2.09134 7.8046189,2.09134 0,0 -5.6043102,-1.52438 -9.7895833,0.26458 z" style="fill:url(#linearGradient955);fill-opacity:1;stroke:none;stroke-width:.08956835px;stroke-linecap:butt;stroke-linejoin:miter;stroke-opacity:1"/></g><path style="opacity:.75;fill:url(#linearGradient984);fill-opacity:1;stroke:none;stroke-width:.20593624px;stroke-linecap:butt;stroke-linejoin:miter;stroke-opacity:1" id="path966" d="m 2.4947173,293.38352 2.0551488,2.26995 h 5.7544159 l -4.9323566,-4.95259 -0.9012783,-0.24572 0.7071424,0.71003 v 1.99987 l -0.5092722,0.51136 -0.5164926,0.29941 h -0.823185 l -0.6048485,-0.60732 z"/><path style="fill:#fff;fill-opacity:1;stroke:none;stroke-width:.27755448;stroke-miterlimit:4;stroke-dasharray:none;stroke-opacity:1" id="rect4871-6" d="m 3.6416708,289.91693 c -0.7492351,0 -1.3524704,0.69167 -1.3524704,1.5509 v 1.17083 c 0,0.85923 0.6032353,1.55108 1.3524704,1.55108 h 0.5832971 c 0.7492363,0 1.3524712,-0.69185 1.3524712,-1.55108 v -1.17083 c 0,-0.85923 -0.6032349,-1.5509 -1.3524712,-1.5509 z m 0.1234318,0.60551 h 0.3346139 c 0.429567,0 0.7753625,0.37687 0.7753625,0.84495 v 1.40023 c 0,0.46808 -0.3457955,0.84495 -0.7753625,0.84495 H 3.7651026 c -0.4295666,0 -0.7753632,-0.37687 -0.7753632,-0.84495 v -1.40023 c 0,-0.46808 0.3457966,-0.84495 0.7753632,-0.84495 z"/><rect style="fill:url(#linearGradient874);fill-opacity:1;stroke:none;stroke-width:.28459525;stroke-miterlimit:4;stroke-dasharray:none;stroke-opacity:1" id="rect4892-2" width="1.031" height=".78" x="255.398" y="156.584" rx="0" ry="0" transform="matrix(0.54708146,0.83707937,-0.86047141,0.50949872,0,0)"/><rect style="opacity:.5;fill:url(#linearGradient976);fill-opacity:1;stroke:none;stroke-width:.6178087;stroke-miterlimit:4;stroke-dasharray:none;stroke-opacity:1" id="rect968" width="1.888" height="3.075" x="2.996" y="290.525" ry=".788"/><text style="font-style:normal;font-weight:400;font-size:1.77398825px;line-height:1.25;font-family:sans-serif;letter-spacing:0;word-spacing:0;fill:#fff;fill-opacity:1;stroke:none;stroke-width:.04434972" id="text877" x="6.013" y="291.992" transform="scale(0.99392476,1.0061124)" xml:space="preserve"><tspan id="tspan875" x="6.013" y="291.992" style="fill:#fff;fill-opacity:1;stroke-width:.04434972">v2ray</tspan></text></g></svg>