<svg xmlns="http://www.w3.org/2000/svg" xmlns:svg="http://www.w3.org/2000/svg" id="svg8" width="32" height="32" version="1.1" viewBox="0 0 8.467 8.467"><metadata id="metadata5"/><g id="layer1" transform="translate(-18.854164,-225.46826)" style="opacity:1"><path style="fill:#31363b;fill-opacity:1;stroke:none;stroke-width:.26458332px;stroke-linecap:butt;stroke-linejoin:miter;stroke-opacity:1" id="path830" d="m 24.145831,229.70159 v 1.05834 h -1.058334 v 1.05833 h 1.058334 v 1.05833 h 1.058333 v -1.05833 h 1.058333 v -1.05833 h -1.058333 v -1.05834 h -0.264583 z m 0.264583,0.26459 h 0.529167 v 1.05833 h 1.058333 v 0.52917 h -1.058333 v 1.05833 h -0.529167 v -1.05833 h -1.058333 v -0.52917 h 1.058333 z"/><rect style="opacity:1;fill:#31363b;fill-opacity:1;stroke:none;stroke-width:.01;stroke-miterlimit:4;stroke-dasharray:none;stroke-opacity:1" id="rect1159" width="2.646" height=".265" x="20.972" y="228.646"/><rect style="opacity:1;fill:#31363b;fill-opacity:1;stroke:none;stroke-width:.01;stroke-miterlimit:4;stroke-dasharray:none;stroke-opacity:1" id="rect1159-1" width="2.646" height=".265" x="20.973" y="229.713"/><path style="opacity:1;fill:#31363b;fill-opacity:1;stroke:none;stroke-width:.03779528;stroke-miterlimit:4;stroke-dasharray:none;stroke-opacity:1" id="path839" d="M 15 20 L 8 20 L 8 21 L 15 21 L 15 20 z" transform="matrix(0.26458333,0,0,0.26458333,18.854164,225.46826)"/><path style="fill:#31363b;fill-opacity:1;stroke:none;stroke-width:.99999994px;stroke-linecap:butt;stroke-linejoin:miter;stroke-opacity:1" id="path1214" d="M 9.5859375 4 L 3.9960938 9.5898438 L 4 10 L 4 25 L 15 25 L 15 24 L 5 24 L 5 10 L 10 10 L 10 5 L 20 5 L 20 15 L 21 15 L 21 4 L 10 4 L 9.5859375 4 z M 9 6 L 9 9 L 6 9 L 9 6 z" transform="matrix(0.26458333,0,0,0.26458333,18.854164,225.46826)"/></g></svg>