<svg xmlns="http://www.w3.org/2000/svg" xmlns:svg="http://www.w3.org/2000/svg" id="svg8" width="32" height="32" version="1.1" viewBox="0 0 8.467 8.467"><metadata id="metadata5"/><g id="layer1" transform="translate(-18.854164,-225.46826)"><rect style="opacity:1;fill:#31363b;fill-opacity:1;stroke:none;stroke-width:.01;stroke-miterlimit:4;stroke-dasharray:none;stroke-opacity:1" id="rect1159" width="2.646" height=".265" x="22.56" y="229.439"/><rect style="opacity:1;fill:#31363b;fill-opacity:1;stroke:none;stroke-width:.01;stroke-miterlimit:4;stroke-dasharray:none;stroke-opacity:1" id="rect1159-1" width="2.646" height=".265" x="22.56" y="230.507"/><rect style="opacity:1;fill:#31363b;fill-opacity:1;stroke:none;stroke-width:.01;stroke-miterlimit:4;stroke-dasharray:none;stroke-opacity:1" id="rect1159-1-9" width="2.646" height=".265" x="22.558" y="231.554"/><rect style="opacity:1;fill:#31363b;fill-opacity:1;stroke:none;stroke-width:.01;stroke-miterlimit:4;stroke-dasharray:none;stroke-opacity:1" id="rect1159-4" width=".265" height=".265" x="20.971" y="228.643" ry="0"/><rect style="opacity:1;fill:#31363b;fill-opacity:1;stroke:none;stroke-width:.01;stroke-miterlimit:4;stroke-dasharray:none;stroke-opacity:1" id="rect1159-1-7" width=".264" height=".255" x="20.971" y="229.711"/><rect style="opacity:1;fill:#31363b;fill-opacity:1;stroke:none;stroke-width:.01;stroke-miterlimit:4;stroke-dasharray:none;stroke-opacity:1" id="rect1159-1-9-8" width=".266" height=".267" x="20.969" y="230.758"/><path id="path1214" d="m 21.764581,228.90784 h 1.322916 v -1.32291 l -0.264583,0.26458 v 0.79375 h -0.79375 z m -0.265642,-0.10855 1.479049,-1.47905 0.109509,10e-5 v 0.26459 l -1.322916,1.32291 h -0.264584 z m 4.498975,4.0773 v -5.55625 h -2.910417 v 0.26459 h 2.645834 v 5.02708 z m -0.264583,-0.26458 h -3.96875 v -3.70417 h -0.264584 v 3.96875 h 4.497917 z" style="fill:#31363b;stroke:none;stroke-width:.26458332px;stroke-linecap:butt;stroke-linejoin:miter;stroke-opacity:1;fill-opacity:1"/><path id="path1214-4" d="m 20.177081,228.11409 h 1.322916 v -1.32291 l -0.264583,0.26458 v 0.79375 h -0.79375 z m -0.265642,-0.10855 1.479049,-1.47905 0.109509,1e-4 v 0.26459 l -1.322916,1.32291 h -0.264584 z m 4.498975,-0.94978 v -0.52917 h -2.910417 v 0.26459 h 2.645834 v 0.26458 z m -3.175,4.7625 h -1.058333 v -3.70417 h -0.264584 v 3.96875 h 1.322917 z" style="fill:#31363b;fill-opacity:1;stroke:none;stroke-width:.26458332px;stroke-linecap:butt;stroke-linejoin:miter;stroke-opacity:1"/></g></svg>