<svg xmlns="http://www.w3.org/2000/svg" xmlns:svg="http://www.w3.org/2000/svg" id="svg8" width="32" height="32" version="1.1" viewBox="0 0 8.467 8.467"><metadata id="metadata5"/><g id="layer1" transform="translate(-18.854164,-225.46826)"><g id="g832" transform="translate(-0.66092917,-0.79374667)"><rect id="rect1159" width="2.646" height=".265" x="22.56" y="229.439" style="opacity:1;fill:#31363b;fill-opacity:1;stroke:none;stroke-width:.01;stroke-miterlimit:4;stroke-dasharray:none;stroke-opacity:1"/><rect id="rect1159-1" width="2.646" height=".265" x="22.56" y="230.507" style="opacity:1;fill:#31363b;fill-opacity:1;stroke:none;stroke-width:.01;stroke-miterlimit:4;stroke-dasharray:none;stroke-opacity:1"/><rect id="rect1159-1-9" width="2.646" height=".265" x="22.558" y="231.554" style="opacity:1;fill:#31363b;fill-opacity:1;stroke:none;stroke-width:.01;stroke-miterlimit:4;stroke-dasharray:none;stroke-opacity:1"/><path style="fill:#31363b;fill-opacity:1;stroke:none;stroke-width:.26458332px;stroke-linecap:butt;stroke-linejoin:miter;stroke-opacity:1" id="path1214" d="m 21.764581,228.90784 h 1.322916 v -1.32291 l -0.264583,0.26458 v 0.79375 h -0.79375 z m -0.265642,-0.10855 1.479049,-1.47905 0.109509,10e-5 v 0.26459 l -1.322916,1.32291 h -0.264584 z m 4.498975,4.0773 v -5.55625 h -2.910417 v 0.26459 h 2.645834 v 5.02708 z m -0.264583,-0.26458 h -3.96875 v -3.70417 h -0.264584 v 3.96875 h 4.497917 z"/></g><path style="fill:#31363b;stroke:none;stroke-width:.26458332px;stroke-linecap:butt;stroke-linejoin:miter;stroke-opacity:1;fill-opacity:1" id="path834" d="m 19.912497,231.28909 h 0.529167 v 0.26459 h -0.264583 v 1.05833 h 5.820833 v -1.05833 h -0.264583 v -0.26459 h 0.529166 v 1.5875 h -6.35 z"/></g></svg>