<svg xmlns="http://www.w3.org/2000/svg" xmlns:svg="http://www.w3.org/2000/svg" id="svg8" width="32" height="32" version="1.1" viewBox="0 0 8.467 8.467"><metadata id="metadata5"/><g id="layer1" transform="translate(-18.854164,-225.46826)" style="opacity:1"><g id="g1116"><path id="path1214-6" d="M 9.5898438 4 L 4 9.5898438 L 4.0039062 10 L 4.0039062 25 L 11 25 L 11 24 L 5.0039062 24 L 5.0039062 10 L 10.003906 10 L 10.003906 5 L 20.003906 5 L 20.003906 10.007812 L 21.003906 10.007812 L 21.003906 4 L 10.003906 4 L 9.5898438 4 z M 9.0039062 6 L 9.0039062 9 L 6.0039062 9 L 9.0039062 6 z" transform="matrix(0.26458333,0,0,0.26458333,18.854164,225.46826)" style="fill:#31363b;fill-opacity:1;stroke:none;stroke-width:.99999994px;stroke-linecap:butt;stroke-linejoin:miter;stroke-opacity:1"/><path id="path1032" d="m 22.822914,228.37868 a 0.79374999,0.79374999 0 0 0 -0.79375,0.79375 v 0.79375 a 0.52916663,0.52916663 0 0 1 -0.529167,0.52916 v 0.26459 a 0.52916663,0.52916663 0 0 1 0.529167,0.52916 v 0.79375 a 0.79374999,0.79374999 0 0 0 0.79375,0.79375 v -0.26458 a 0.52916663,0.52916663 0 0 1 -0.529167,-0.52917 v -0.79375 a 0.79374999,0.79374999 0 0 0 -0.35605,-0.66145 0.79374999,0.79374999 0 0 0 0.35605,-0.66146 v -0.79375 a 0.52916663,0.52916663 0 0 1 0.529167,-0.52917 z" style="fill:#31363b;fill-opacity:1;stroke:none;stroke-width:.26458332px;stroke-linecap:butt;stroke-linejoin:miter;stroke-opacity:1"/><path id="path1032-1" d="m 24.93958,228.37867 a 0.79375,0.79375 0 0 1 0.79375,0.79375 v 0.79375 a 0.52916664,0.52916664 0 0 0 0.529167,0.52917 v 0.26458 a 0.52916664,0.52916664 0 0 0 -0.529167,0.52917 v 0.79375 a 0.79375,0.79375 0 0 1 -0.79375,0.79375 V 232.612 a 0.52916664,0.52916664 0 0 0 0.529167,-0.52916 v -0.79375 a 0.79375,0.79375 0 0 1 0.356051,-0.66146 0.79375,0.79375 0 0 1 -0.356051,-0.66146 v -0.79375 a 0.52916664,0.52916664 0 0 0 -0.529167,-0.52917 z" style="opacity:1;fill:#31363b;fill-opacity:1;stroke:none;stroke-width:.26458332px;stroke-linecap:butt;stroke-linejoin:miter;stroke-opacity:1"/><g id="g1108"><circle style="opacity:1;fill:#31363b;fill-opacity:1;stroke:none;stroke-width:.01;stroke-linejoin:round;stroke-miterlimit:4;stroke-dasharray:none;stroke-opacity:1" id="path1067" cx="23.881" cy="229.966" r=".265"/><path style="opacity:1;fill:#31363b;fill-opacity:1;stroke:none;stroke-width:.03779528;stroke-linejoin:round;stroke-miterlimit:4;stroke-dasharray:none;stroke-opacity:1" id="path1067-2" d="M 19 21 A 0.99999994 0.99999994 0 0 0 18 22 A 0.99999994 0.99999994 0 0 0 18.722656 22.958984 C 18.426399 23.545698 18 24 18 24 C 18 24 19.261784 23.422924 19.775391 22.630859 A 0.99999994 0.99999994 0 0 0 19.914062 22.402344 A 0.99999994 0.99999994 0 0 0 20 22 A 0.99999994 0.99999994 0 0 0 19 21 z" transform="matrix(0.26458333,0,0,0.26458333,18.854164,225.46826)"/></g></g></g></svg>