<svg xmlns="http://www.w3.org/2000/svg" xmlns:svg="http://www.w3.org/2000/svg" id="svg8" width="32" height="32" version="1.1" viewBox="0 0 8.467 8.467"><metadata id="metadata5"/><g id="layer1" transform="translate(-18.854164,-225.46826)"><circle style="opacity:1;fill:#31363b;fill-opacity:1;stroke:none;stroke-width:.01;stroke-linejoin:round;stroke-miterlimit:4;stroke-dasharray:none;stroke-opacity:1" id="path1148" cx="23.087" cy="229.702" r=".265"/><path style="fill:#31363b;fill-opacity:1;stroke:none;stroke-width:.25420347px;stroke-linecap:butt;stroke-linejoin:miter;stroke-opacity:1" id="path1150" d="m 23.087497,229.51453 2.245078,-2.24507 0.187089,0.18709 -2.245064,2.24506 z"/><rect style="opacity:1;fill:#31363b;fill-opacity:1;stroke:none;stroke-width:.01;stroke-linejoin:round;stroke-miterlimit:4;stroke-dasharray:none;stroke-opacity:1" id="rect1222" width=".265" height=".265" x="-147.914" y="179.552" transform="rotate(-45)"/><path style="fill:#31363b;fill-opacity:1;stroke:none;stroke-width:.26458332px;stroke-linecap:butt;stroke-linejoin:miter;stroke-opacity:1" id="path1298" d="m 21.499997,231.95055 0.474373,0 0.583961,-0.58396 1.05833,1.05833 0.474377,-0.47437 h 0.588094 v 0.26458 h -0.478511 l -0.583962,0.58397 -1.058328,-1.05833 -0.474368,0.47436 h -0.582932 z"/><path style="opacity:1;fill:#31363b;fill-opacity:1;stroke:none;stroke-width:.03779528;stroke-linejoin:round;stroke-miterlimit:4;stroke-dasharray:none;stroke-opacity:1" id="path951" d="M 16 4 A 11.999921 11.999921 0 0 0 4 16 A 11.999921 11.999921 0 0 0 7.5195312 24.480469 L 11.052734 21.267578 L 11.759766 20.560547 A 5.9999984 5.9999984 0 0 1 10 16.320312 A 5.9999984 5.9999984 0 0 1 16 10.320312 A 5.9999984 5.9999984 0 0 1 18.841797 11.037109 L 19.570312 10.308594 A 6.9999998 6.9999998 0 0 0 16 9.3203125 A 6.9999998 6.9999998 0 0 0 9 16.320312 A 6.9999998 6.9999998 0 0 0 10.375 20.46875 L 7.5566406 23.033203 A 10.999999 10.999999 0 0 1 5 16 A 10.999999 10.999999 0 0 1 16 5 A 10.999999 10.999999 0 0 1 22.634766 7.2421875 L 23.353516 6.5234375 A 11.999921 11.999921 0 0 0 16 4 z" transform="matrix(0.26458333,0,0,0.26458333,18.854164,225.46826)"/><path style="opacity:1;fill:#31363b;fill-opacity:1;stroke:none;stroke-width:.03779528;stroke-linejoin:round;stroke-miterlimit:4;stroke-dasharray:none;stroke-opacity:1" id="path947" d="M 20.427734 12.279297 L 21.132812 11.574219 A 6.9999999 6.9999999 0 0 0 20.408203 10.884766 L 19.693359 11.599609 A 5.9999985 5.9999985 0 0 1 20.427734 12.279297 z" transform="matrix(0.26458333,0,0,0.26458333,18.854164,225.46826)"/><path style="opacity:1;fill:#31363b;fill-opacity:1;stroke:none;stroke-width:.03779528;stroke-linejoin:round;stroke-miterlimit:4;stroke-dasharray:none;stroke-opacity:1" id="path943" d="M 25.46875 8.6523438 L 24.759766 9.3632812 A 10.999999 10.999999 0 0 1 27 16 A 10.999999 10.999999 0 0 1 24.445312 23.033203 L 21.623047 20.46875 A 6.9999998 6.9999998 0 0 0 23 16.320312 A 6.9999998 6.9999998 0 0 0 21.767578 12.353516 L 21.046875 13.076172 A 5.9999984 5.9999984 0 0 1 22 16.320312 A 5.9999984 5.9999984 0 0 1 20.240234 20.560547 L 20.947266 21.267578 L 24.480469 24.480469 A 11.999921 11.999921 0 0 0 28 16 A 11.999921 11.999921 0 0 0 25.46875 8.6523438 z" transform="matrix(0.26458333,0,0,0.26458333,18.854164,225.46826)"/><path style="opacity:1;fill:#31363b;fill-opacity:1;stroke:none;stroke-width:.03779528;stroke-linejoin:round;stroke-miterlimit:4;stroke-dasharray:none;stroke-opacity:1" id="path937" d="M 24.115234 7.1777344 L 23.408203 7.8847656 A 10.999999 10.999999 0 0 1 24.117188 8.5917969 L 24.822266 7.8867188 A 11.999921 11.999921 0 0 0 24.115234 7.1777344 z" transform="matrix(0.26458333,0,0,0.26458333,18.854164,225.46826)"/></g></svg>